<svg width="337" height="132" viewBox="0 0 337 132" fill="none" xmlns="http://www.w3.org/2000/svg">
<path d="M4.42 15.86H12.22V37.765H12.415C12.805 37.245 13.3033 36.725 13.91 36.205C14.5167 35.6417 15.2533 35.1217 16.12 34.645C16.9867 34.1683 17.9833 33.7783 19.11 33.475C20.2367 33.1717 21.5367 33.02 23.01 33.02C25.22 33.02 27.2567 33.4533 29.12 34.32C30.9833 35.1433 32.565 36.2917 33.865 37.765C35.2083 39.2383 36.2483 40.9717 36.985 42.965C37.7217 44.9583 38.09 47.1033 38.09 49.4C38.09 51.6967 37.7433 53.8417 37.05 55.835C36.3567 57.8283 35.3383 59.5617 33.995 61.035C32.6517 62.5083 31.0267 63.6783 29.12 64.545C27.2133 65.3683 25.0683 65.78 22.685 65.78C20.475 65.78 18.4167 65.3467 16.51 64.48C14.6033 63.6133 13.0867 62.2267 11.96 60.32H11.83V65H4.42V15.86ZM30.29 49.4C30.29 48.1867 30.0733 47.0167 29.64 45.89C29.25 44.7633 28.6433 43.7667 27.82 42.9C27.04 42.0333 26.0867 41.34 24.96 40.82C23.8333 40.3 22.555 40.04 21.125 40.04C19.695 40.04 18.4167 40.3 17.29 40.82C16.1633 41.34 15.1883 42.0333 14.365 42.9C13.585 43.7667 12.9783 44.7633 12.545 45.89C12.155 47.0167 11.96 48.1867 11.96 49.4C11.96 50.6133 12.155 51.7833 12.545 52.91C12.9783 54.0367 13.585 55.0333 14.365 55.9C15.1883 56.7667 16.1633 57.46 17.29 57.98C18.4167 58.5 19.695 58.76 21.125 58.76C22.555 58.76 23.8333 58.5 24.96 57.98C26.0867 57.46 27.04 56.7667 27.82 55.9C28.6433 55.0333 29.25 54.0367 29.64 52.91C30.0733 51.7833 30.29 50.6133 30.29 49.4ZM43.8024 49.4C43.8024 46.93 44.2357 44.6983 45.1024 42.705C46.0124 40.6683 47.2257 38.935 48.7424 37.505C50.259 36.075 52.0574 34.97 54.1374 34.19C56.2174 33.41 58.4274 33.02 60.7674 33.02C63.1074 33.02 65.3174 33.41 67.3974 34.19C69.4774 34.97 71.2757 36.075 72.7924 37.505C74.3091 38.935 75.5007 40.6683 76.3674 42.705C77.2774 44.6983 77.7324 46.93 77.7324 49.4C77.7324 51.87 77.2774 54.1233 76.3674 56.16C75.5007 58.1533 74.3091 59.865 72.7924 61.295C71.2757 62.725 69.4774 63.83 67.3974 64.61C65.3174 65.39 63.1074 65.78 60.7674 65.78C58.4274 65.78 56.2174 65.39 54.1374 64.61C52.0574 63.83 50.259 62.725 48.7424 61.295C47.2257 59.865 46.0124 58.1533 45.1024 56.16C44.2357 54.1233 43.8024 51.87 43.8024 49.4ZM51.6024 49.4C51.6024 50.6133 51.7974 51.7833 52.1874 52.91C52.6207 54.0367 53.2274 55.0333 54.0074 55.9C54.8307 56.7667 55.8057 57.46 56.9324 57.98C58.0591 58.5 59.3374 58.76 60.7674 58.76C62.1974 58.76 63.4757 58.5 64.6024 57.98C65.7291 57.46 66.6824 56.7667 67.4624 55.9C68.2857 55.0333 68.8924 54.0367 69.2824 52.91C69.7157 51.7833 69.9324 50.6133 69.9324 49.4C69.9324 48.1867 69.7157 47.0167 69.2824 45.89C68.8924 44.7633 68.2857 43.7667 67.4624 42.9C66.6824 42.0333 65.7291 41.34 64.6024 40.82C63.4757 40.3 62.1974 40.04 60.7674 40.04C59.3374 40.04 58.0591 40.3 56.9324 40.82C55.8057 41.34 54.8307 42.0333 54.0074 42.9C53.2274 43.7667 52.6207 44.7633 52.1874 45.89C51.7974 47.0167 51.6024 48.1867 51.6024 49.4ZM83.4752 49.4C83.4752 46.93 83.9086 44.6983 84.7752 42.705C85.6852 40.6683 86.8986 38.935 88.4152 37.505C89.9319 36.075 91.7302 34.97 93.8102 34.19C95.8902 33.41 98.1002 33.02 100.44 33.02C102.78 33.02 104.99 33.41 107.07 34.19C109.15 34.97 110.949 36.075 112.465 37.505C113.982 38.935 115.174 40.6683 116.04 42.705C116.95 44.6983 117.405 46.93 117.405 49.4C117.405 51.87 116.95 54.1233 116.04 56.16C115.174 58.1533 113.982 59.865 112.465 61.295C110.949 62.725 109.15 63.83 107.07 64.61C104.99 65.39 102.78 65.78 100.44 65.78C98.1002 65.78 95.8902 65.39 93.8102 64.61C91.7302 63.83 89.9319 62.725 88.4152 61.295C86.8986 59.865 85.6852 58.1533 84.7752 56.16C83.9086 54.1233 83.4752 51.87 83.4752 49.4ZM91.2752 49.4C91.2752 50.6133 91.4702 51.7833 91.8602 52.91C92.2936 54.0367 92.9002 55.0333 93.6802 55.9C94.5036 56.7667 95.4786 57.46 96.6052 57.98C97.7319 58.5 99.0102 58.76 100.44 58.76C101.87 58.76 103.149 58.5 104.275 57.98C105.402 57.46 106.355 56.7667 107.135 55.9C107.959 55.0333 108.565 54.0367 108.955 52.91C109.389 51.7833 109.605 50.6133 109.605 49.4C109.605 48.1867 109.389 47.0167 108.955 45.89C108.565 44.7633 107.959 43.7667 107.135 42.9C106.355 42.0333 105.402 41.34 104.275 40.82C103.149 40.3 101.87 40.04 100.44 40.04C99.0102 40.04 97.7319 40.3 96.6052 40.82C95.4786 41.34 94.5036 42.0333 93.6802 42.9C92.9002 43.7667 92.2936 44.7633 91.8602 45.89C91.4702 47.0167 91.2752 48.1867 91.2752 49.4ZM124.708 15.86H132.508V46.735L144.533 33.8H154.543L141.153 47.97L155.388 65H145.053L132.638 49.075H132.508V65H124.708V15.86ZM159.295 33.8H166.705V38.675H166.835C167.529 37.2017 168.634 35.9017 170.15 34.775C171.71 33.605 173.79 33.02 176.39 33.02C181.287 33.02 184.537 34.9483 186.14 38.805C187.267 36.8117 188.675 35.36 190.365 34.45C192.055 33.4967 194.07 33.02 196.41 33.02C198.49 33.02 200.245 33.3667 201.675 34.06C203.105 34.7533 204.254 35.7067 205.12 36.92C206.03 38.1333 206.68 39.5633 207.07 41.21C207.46 42.8133 207.655 44.5467 207.655 46.41V65H199.855V47.32C199.855 46.3667 199.769 45.4567 199.595 44.59C199.422 43.68 199.119 42.9 198.685 42.25C198.252 41.5567 197.667 41.015 196.93 40.625C196.194 40.235 195.24 40.04 194.07 40.04C192.857 40.04 191.817 40.2783 190.95 40.755C190.127 41.1883 189.434 41.795 188.87 42.575C188.35 43.3117 187.96 44.1783 187.7 45.175C187.484 46.1283 187.375 47.1033 187.375 48.1V65H179.575V46.41C179.575 44.46 179.164 42.9217 178.34 41.795C177.517 40.625 176.152 40.04 174.245 40.04C172.945 40.04 171.84 40.2567 170.93 40.69C170.064 41.1233 169.327 41.7083 168.72 42.445C168.157 43.1817 167.745 44.0267 167.485 44.98C167.225 45.9333 167.095 46.93 167.095 47.97V65H159.295V33.8ZM235.678 60.71H235.483C234.356 62.4867 232.926 63.7867 231.193 64.61C229.459 65.39 227.553 65.78 225.473 65.78C224.043 65.78 222.634 65.585 221.248 65.195C219.904 64.805 218.691 64.22 217.608 63.44C216.568 62.66 215.723 61.685 215.073 60.515C214.423 59.345 214.098 57.98 214.098 56.42C214.098 54.73 214.401 53.3 215.008 52.13C215.614 50.9167 216.416 49.92 217.413 49.14C218.453 48.3167 219.644 47.6667 220.988 47.19C222.331 46.7133 223.718 46.3667 225.148 46.15C226.621 45.89 228.094 45.7383 229.568 45.695C231.041 45.6083 232.428 45.565 233.728 45.565H235.678V44.72C235.678 42.77 235.006 41.3183 233.663 40.365C232.319 39.3683 230.608 38.87 228.528 38.87C226.881 38.87 225.343 39.1733 223.913 39.78C222.483 40.3433 221.248 41.1233 220.208 42.12L216.113 38.025C217.846 36.2483 219.861 34.97 222.158 34.19C224.498 33.41 226.903 33.02 229.373 33.02C231.583 33.02 233.446 33.28 234.963 33.8C236.479 34.2767 237.736 34.905 238.733 35.685C239.729 36.465 240.488 37.375 241.008 38.415C241.571 39.4117 241.961 40.43 242.178 41.47C242.438 42.51 242.589 43.5283 242.633 44.525C242.676 45.4783 242.698 46.3233 242.698 47.06V65H235.678V60.71ZM235.223 51.025H233.598C232.514 51.025 231.301 51.0683 229.958 51.155C228.614 51.2417 227.336 51.4583 226.123 51.805C224.953 52.1083 223.956 52.585 223.133 53.235C222.309 53.8417 221.898 54.7083 221.898 55.835C221.898 56.5717 222.049 57.2 222.353 57.72C222.699 58.1967 223.133 58.6083 223.653 58.955C224.173 59.3017 224.758 59.5617 225.408 59.735C226.058 59.865 226.708 59.93 227.358 59.93C230.044 59.93 232.016 59.3017 233.273 58.045C234.573 56.745 235.223 54.99 235.223 52.78V51.025ZM251.09 33.8H258.89V38.74H259.02C259.887 36.92 261.122 35.5117 262.725 34.515C264.328 33.5183 266.17 33.02 268.25 33.02C268.727 33.02 269.182 33.0633 269.615 33.15C270.092 33.2367 270.568 33.345 271.045 33.475V41.015C270.395 40.8417 269.745 40.7117 269.095 40.625C268.488 40.495 267.882 40.43 267.275 40.43C265.455 40.43 263.982 40.7767 262.855 41.47C261.772 42.12 260.927 42.8783 260.32 43.745C259.757 44.6117 259.367 45.4783 259.15 46.345C258.977 47.2117 258.89 47.8617 258.89 48.295V65H251.09V33.8ZM276.354 15.86H284.154V46.735L296.179 33.8H306.189L292.799 47.97L307.034 65H296.699L284.284 49.075H284.154V65H276.354V15.86Z" fill="white"/>
<path d="M4.42 116.14H12.22V94.235H12.415C12.805 94.755 13.3033 95.275 13.91 95.795C14.5167 96.3583 15.2533 96.8783 16.12 97.355C16.9867 97.8317 17.9833 98.2217 19.11 98.525C20.2367 98.8283 21.5367 98.98 23.01 98.98C25.22 98.98 27.2567 98.5467 29.12 97.68C30.9833 96.8567 32.565 95.7083 33.865 94.235C35.2083 92.7617 36.2483 91.0283 36.985 89.035C37.7217 87.0417 38.09 84.8967 38.09 82.6C38.09 80.3033 37.7433 78.1583 37.05 76.165C36.3567 74.1717 35.3383 72.4383 33.995 70.965C32.6517 69.4917 31.0267 68.3217 29.12 67.455C27.2133 66.6317 25.0683 66.22 22.685 66.22C20.475 66.22 18.4167 66.6533 16.51 67.52C14.6033 68.3867 13.0867 69.7733 11.96 71.68H11.83V67H4.42V116.14ZM30.29 82.6C30.29 83.8133 30.0733 84.9833 29.64 86.11C29.25 87.2367 28.6433 88.2333 27.82 89.1C27.04 89.9667 26.0867 90.66 24.96 91.18C23.8333 91.7 22.555 91.96 21.125 91.96C19.695 91.96 18.4167 91.7 17.29 91.18C16.1633 90.66 15.1883 89.9667 14.365 89.1C13.585 88.2333 12.9783 87.2367 12.545 86.11C12.155 84.9833 11.96 83.8133 11.96 82.6C11.96 81.3867 12.155 80.2167 12.545 79.09C12.9783 77.9633 13.585 76.9667 14.365 76.1C15.1883 75.2333 16.1633 74.54 17.29 74.02C18.4167 73.5 19.695 73.24 21.125 73.24C22.555 73.24 23.8333 73.5 24.96 74.02C26.0867 74.54 27.04 75.2333 27.82 76.1C28.6433 76.9667 29.25 77.9633 29.64 79.09C30.0733 80.2167 30.29 81.3867 30.29 82.6ZM43.8024 82.6C43.8024 85.07 44.2357 87.3017 45.1024 89.295C46.0124 91.3317 47.2257 93.065 48.7424 94.495C50.259 95.925 52.0574 97.03 54.1374 97.81C56.2174 98.59 58.4274 98.98 60.7674 98.98C63.1074 98.98 65.3174 98.59 67.3974 97.81C69.4774 97.03 71.2757 95.925 72.7924 94.495C74.3091 93.065 75.5007 91.3317 76.3674 89.295C77.2774 87.3017 77.7324 85.07 77.7324 82.6C77.7324 80.13 77.2774 77.8767 76.3674 75.84C75.5007 73.8467 74.3091 72.135 72.7924 70.705C71.2757 69.275 69.4774 68.17 67.3974 67.39C65.3174 66.61 63.1074 66.22 60.7674 66.22C58.4274 66.22 56.2174 66.61 54.1374 67.39C52.0574 68.17 50.259 69.275 48.7424 70.705C47.2257 72.135 46.0124 73.8467 45.1024 75.84C44.2357 77.8767 43.8024 80.13 43.8024 82.6ZM51.6024 82.6C51.6024 81.3867 51.7974 80.2167 52.1874 79.09C52.6207 77.9633 53.2274 76.9667 54.0074 76.1C54.8307 75.2333 55.8057 74.54 56.9324 74.02C58.0591 73.5 59.3374 73.24 60.7674 73.24C62.1974 73.24 63.4757 73.5 64.6024 74.02C65.7291 74.54 66.6824 75.2333 67.4624 76.1C68.2857 76.9667 68.8924 77.9633 69.2824 79.09C69.7157 80.2167 69.9324 81.3867 69.9324 82.6C69.9324 83.8133 69.7157 84.9833 69.2824 86.11C68.8924 87.2367 68.2857 88.2333 67.4624 89.1C66.6824 89.9667 65.7291 90.66 64.6024 91.18C63.4757 91.7 62.1974 91.96 60.7674 91.96C59.3374 91.96 58.0591 91.7 56.9324 91.18C55.8057 90.66 54.8307 89.9667 54.0074 89.1C53.2274 88.2333 52.6207 87.2367 52.1874 86.11C51.7974 84.9833 51.6024 83.8133 51.6024 82.6ZM83.4752 82.6C83.4752 85.07 83.9086 87.3017 84.7752 89.295C85.6852 91.3317 86.8986 93.065 88.4152 94.495C89.9319 95.925 91.7302 97.03 93.8102 97.81C95.8902 98.59 98.1002 98.98 100.44 98.98C102.78 98.98 104.99 98.59 107.07 97.81C109.15 97.03 110.949 95.925 112.465 94.495C113.982 93.065 115.174 91.3317 116.04 89.295C116.95 87.3017 117.405 85.07 117.405 82.6C117.405 80.13 116.95 77.8767 116.04 75.84C115.174 73.8467 113.982 72.135 112.465 70.705C110.949 69.275 109.15 68.17 107.07 67.39C104.99 66.61 102.78 66.22 100.44 66.22C98.1002 66.22 95.8902 66.61 93.8102 67.39C91.7302 68.17 89.9319 69.275 88.4152 70.705C86.8986 72.135 85.6852 73.8467 84.7752 75.84C83.9086 77.8767 83.4752 80.13 83.4752 82.6ZM91.2752 82.6C91.2752 81.3867 91.4702 80.2167 91.8602 79.09C92.2936 77.9633 92.9002 76.9667 93.6802 76.1C94.5036 75.2333 95.4786 74.54 96.6052 74.02C97.7319 73.5 99.0102 73.24 100.44 73.24C101.87 73.24 103.149 73.5 104.275 74.02C105.402 74.54 106.355 75.2333 107.135 76.1C107.959 76.9667 108.565 77.9633 108.955 79.09C109.389 80.2167 109.605 81.3867 109.605 82.6C109.605 83.8133 109.389 84.9833 108.955 86.11C108.565 87.2367 107.959 88.2333 107.135 89.1C106.355 89.9667 105.402 90.66 104.275 91.18C103.149 91.7 101.87 91.96 100.44 91.96C99.0102 91.96 97.7319 91.7 96.6052 91.18C95.4786 90.66 94.5036 89.9667 93.6802 89.1C92.9002 88.2333 92.2936 87.2367 91.8602 86.11C91.4702 84.9833 91.2752 83.8133 91.2752 82.6ZM124.708 116.14H132.508V85.265L144.533 98.2H154.543L141.153 84.03L155.388 67H145.053L132.638 82.925H132.508V67H124.708V116.14ZM159.295 98.2H166.705V93.325H166.835C167.529 94.7983 168.634 96.0983 170.15 97.225C171.71 98.395 173.79 98.98 176.39 98.98C181.287 98.98 184.537 97.0517 186.14 93.195C187.267 95.1883 188.675 96.64 190.365 97.55C192.055 98.5033 194.07 98.98 196.41 98.98C198.49 98.98 200.245 98.6333 201.675 97.94C203.105 97.2467 204.254 96.2933 205.12 95.08C206.03 93.8667 206.68 92.4367 207.07 90.79C207.46 89.1867 207.655 87.4533 207.655 85.59V67H199.855V84.68C199.855 85.6333 199.769 86.5433 199.595 87.41C199.422 88.32 199.119 89.1 198.685 89.75C198.252 90.4433 197.667 90.985 196.93 91.375C196.194 91.765 195.24 91.96 194.07 91.96C192.857 91.96 191.817 91.7217 190.95 91.245C190.127 90.8117 189.434 90.205 188.87 89.425C188.35 88.6883 187.96 87.8217 187.7 86.825C187.484 85.8717 187.375 84.8967 187.375 83.9V67H179.575V85.59C179.575 87.54 179.164 89.0783 178.34 90.205C177.517 91.375 176.152 91.96 174.245 91.96C172.945 91.96 171.84 91.7433 170.93 91.31C170.064 90.8767 169.327 90.2917 168.72 89.555C168.157 88.8183 167.745 87.9733 167.485 87.02C167.225 86.0667 167.095 85.07 167.095 84.03V67H159.295V98.2ZM235.678 71.29H235.483C234.356 69.5133 232.926 68.2133 231.193 67.39C229.459 66.61 227.553 66.22 225.473 66.22C224.043 66.22 222.634 66.415 221.248 66.805C219.904 67.195 218.691 67.78 217.608 68.56C216.568 69.34 215.723 70.315 215.073 71.485C214.423 72.655 214.098 74.02 214.098 75.58C214.098 77.27 214.401 78.7 215.008 79.87C215.614 81.0833 216.416 82.08 217.413 82.86C218.453 83.6833 219.644 84.3333 220.988 84.81C222.331 85.2867 223.718 85.6333 225.148 85.85C226.621 86.11 228.094 86.2617 229.568 86.305C231.041 86.3917 232.428 86.435 233.728 86.435H235.678V87.28C235.678 89.23 235.006 90.6817 233.663 91.635C232.319 92.6317 230.608 93.13 228.528 93.13C226.881 93.13 225.343 92.8267 223.913 92.22C222.483 91.6567 221.248 90.8767 220.208 89.88L216.113 93.975C217.846 95.7517 219.861 97.03 222.158 97.81C224.498 98.59 226.903 98.98 229.373 98.98C231.583 98.98 233.446 98.72 234.963 98.2C236.479 97.7233 237.736 97.095 238.733 96.315C239.729 95.535 240.488 94.625 241.008 93.585C241.571 92.5883 241.961 91.57 242.178 90.53C242.438 89.49 242.589 88.4717 242.633 87.475C242.676 86.5217 242.698 85.6767 242.698 84.94V67H235.678V71.29ZM235.223 80.975H233.598C232.514 80.975 231.301 80.9317 229.958 80.845C228.614 80.7583 227.336 80.5417 226.123 80.195C224.953 79.8917 223.956 79.415 223.133 78.765C222.309 78.1583 221.898 77.2917 221.898 76.165C221.898 75.4283 222.049 74.8 222.353 74.28C222.699 73.8033 223.133 73.3917 223.653 73.045C224.173 72.6983 224.758 72.4383 225.408 72.265C226.058 72.135 226.708 72.07 227.358 72.07C230.044 72.07 232.016 72.6983 233.273 73.955C234.573 75.255 235.223 77.01 235.223 79.22V80.975ZM251.09 98.2H258.89V93.26H259.02C259.887 95.08 261.122 96.4883 262.725 97.485C264.328 98.4817 266.17 98.98 268.25 98.98C268.727 98.98 269.182 98.9367 269.615 98.85C270.092 98.7633 270.568 98.655 271.045 98.525V90.985C270.395 91.1583 269.745 91.2883 269.095 91.375C268.488 91.505 267.882 91.57 267.275 91.57C265.455 91.57 263.982 91.2233 262.855 90.53C261.772 89.88 260.927 89.1217 260.32 88.255C259.757 87.3883 259.367 86.5217 259.15 85.655C258.977 84.7883 258.89 84.1383 258.89 83.705V67H251.09V98.2ZM276.354 116.14H284.154V85.265L296.179 98.2H306.189L292.799 84.03L307.034 67H296.699L284.284 82.925H284.154V67H276.354V116.14Z" fill="white" fill-opacity="0.15"/>
</svg>
